<?xml version="1.0" encoding="UTF-8"?>
<svg id="Layer_1" data-name="Layer 1" xmlns="http://www.w3.org/2000/svg" viewBox="0 0 728 732">
  <defs>
    <style>
      .cls-1 {
        fill: #fff;
      }

      .cls-2 {
        fill: #002a47;
      }
    </style>
  </defs>
  <g>
    <g>
      <path class="cls-1" d="M294.58,396.13l-66.49,77.51c-3.54,4.12-5.24,9.36-4.83,14.8.41,5.41,2.9,10.36,7.02,13.9,8.51,7.29,21.38,6.31,28.7-2.22l66.49-77.51-30.89-26.48ZM238.7,484.41c-.95,1.1-2.34,1.73-3.8,1.73-1.19,0-2.37-.41-3.27-1.19-2.1-1.8-2.34-4.97-.54-7.07l60.61-70.68c.88-1.02,2.1-1.63,3.41-1.73,1.37-.12,2.66.32,3.66,1.19,2.1,1.8,2.34,4.97.56,7.07l-60.64,70.68ZM254.35,497.8c-.95,1.12-2.34,1.76-3.83,1.76-1.19,0-2.34-.44-3.27-1.22-1-.85-1.63-2.07-1.73-3.41-.1-1.34.32-2.63,1.19-3.66l60.61-70.66c.88-1.02,2.1-1.63,3.44-1.73,1.32-.1,2.63.32,3.66,1.19,1,.85,1.61,2.07,1.73,3.41.1,1.34-.34,2.63-1.19,3.66l-60.61,70.66Z"/>
      <path class="cls-1" d="M495.78,473.54l-67.05-77.02-30.7,26.7,67.07,77.02c7.36,8.46,20.24,9.34,28.7,2,4.1-3.58,6.56-8.53,6.92-13.95.39-5.44-1.39-10.65-4.95-14.75ZM476.81,498.39c-.93.78-2.1,1.22-3.32,1.22-1.44,0-2.8-.61-3.78-1.71l-61.13-70.22c-1.83-2.1-1.61-5.27.49-7.1,2.07-1.8,5.24-1.58,7.07.49l61.15,70.22c.88,1.02,1.32,2.32,1.22,3.66-.1,1.34-.71,2.56-1.71,3.44ZM492.32,484.85c-.9.8-2.07,1.24-3.29,1.24-1.44,0-2.83-.63-3.78-1.73l-61.15-70.22c-.88-1-1.29-2.29-1.22-3.63.1-1.34.71-2.56,1.73-3.44,2.07-1.83,5.24-1.61,7.07.49l61.15,70.22c.88,1,1.29,2.29,1.22,3.63-.1,1.34-.71,2.56-1.73,3.44Z"/>
    </g>
    <path class="cls-2" d="M705.89,408.73l-30.77-4.16c-4.05-.6-6.92-4.23-6.54-8.28.94-9.65,1.39-19.25,1.39-28.51,0-10.52-.58-21.24-1.68-31.96-.43-4.07,2.44-7.72,6.54-8.3l31.07-4.21c4.34-.6,8.19-2.89,10.74-6.42,2.64-3.58,3.69-7.97,2.93-12.31-3.76-21.82-9.51-43.35-17.19-63.97-1.5-4.19-4.59-7.43-8.64-9.22-4.01-1.77-8.48-1.81-12.53-.16l-28.74,11.73c-3.78,1.57-8.06-.16-9.78-3.87-4.01-8.8-8.39-17.35-13.05-25.4-5.26-9.09-11.15-18.11-17.44-26.81-2.44-3.31-1.77-7.92,1.5-10.45l24.46-18.96c3.47-2.69,5.66-6.58,6.11-10.97.47-4.43-.83-8.73-3.72-12.15-14.12-16.88-29.9-32.52-46.82-46.53-3.42-2.82-7.68-4.1-12.11-3.63-4.36.49-8.24,2.66-10.94,6.11l-18.64,24.06c-2.48,3.25-7.05,3.87-10.39,1.5-7.88-5.6-15.94-10.79-23.99-15.42-9.13-5.24-18.71-10.14-28.54-14.53-3.76-1.66-5.48-6-3.92-9.78l11.48-28.02c1.63-4.1,1.57-8.57-.22-12.62-1.81-4.05-5.1-7.12-9.27-8.64-20.59-7.48-42.03-13.09-63.74-16.67-4.39-.72-8.73.29-12.26,2.91s-5.77,6.42-6.38,10.77l-4.01,29.32c-.58,4.05-4.16,6.92-8.26,6.54-20.55-1.92-40.31-1.81-60.47.31-4.05.45-7.72-2.46-8.26-6.56l-4.01-29.07c-.6-4.34-2.89-8.17-6.42-10.74-3.58-2.62-7.97-3.67-12.35-2.89-21.64,3.8-42.97,9.58-63.38,17.23-4.14,1.54-7.39,4.63-9.15,8.68-1.77,4.01-1.81,8.44-.18,12.49l10.9,26.66c1.54,3.8-.18,8.08-3.89,9.8-8.77,4.01-17.35,8.39-25.4,13.03-9.06,5.28-18.08,11.15-26.79,17.44-3.33,2.44-7.92,1.77-10.45-1.48l-17.44-22.49c-2.71-3.49-6.58-5.66-10.97-6.11-4.43-.47-8.73.85-12.15,3.72-16.72,14.01-32.21,29.61-46.08,46.37-2.82,3.42-4.14,7.72-3.63,12.11.47,4.34,2.66,8.21,6.11,10.92l22.09,17.1c3.2,2.53,3.87,7.07,1.5,10.45-5.62,7.9-10.79,15.96-15.44,23.97-5.24,9.11-10.12,18.69-14.5,28.51-1.66,3.76-5.95,5.48-9.8,3.94l-25.94-10.61c-4.1-1.68-8.53-1.59-12.58.18-4.05,1.77-7.12,5.06-8.64,9.24-7.47,20.39-13.14,41.65-16.76,63.12-.76,4.41.25,8.8,2.86,12.33,2.62,3.54,6.47,5.82,10.81,6.4l27.31,3.72c4.05.6,6.92,4.23,6.54,8.28-.92,9.67-1.39,19.25-1.39,28.51,0,10.52.58,21.28,1.68,31.94.47,4.1-2.44,7.72-6.54,8.28l-27.6,3.8c-4.34.58-8.19,2.86-10.81,6.4-2.62,3.56-3.63,7.95-2.86,12.33,3.63,21.46,9.29,42.73,16.76,63.12,1.52,4.19,4.59,7.48,8.64,9.24,4.05,1.77,8.48,1.86,12.58.16l25.65-10.45c3.8-1.52,8.1.16,9.8,3.87,3.98,8.82,8.42,17.35,13.03,25.4,5.28,9.06,11.15,18.11,17.48,26.79,2.39,3.33,1.72,7.95-1.52,10.47l-22.34,17.3c-3.45,2.69-5.64,6.58-6.11,10.92-.47,4.39.81,8.71,3.63,12.11,13.88,16.76,29.36,32.36,46.08,46.37,3.42,2.86,7.72,4.23,12.15,3.72,4.39-.47,8.26-2.62,10.97-6.11l17.26-22.25c2.48-3.2,7.09-3.87,10.43-1.52,7.88,5.62,15.96,10.81,23.95,15.44,9.13,5.24,18.71,10.14,28.54,14.53,3.76,1.63,5.48,6,3.92,9.78l-11.01,26.97c-1.63,4.05-1.59,8.48.18,12.49,1.77,4.05,5.01,7.14,9.15,8.68,20.46,7.63,41.79,13.43,63.38,17.21,4.39.81,8.77-.2,12.35-2.86,3.54-2.57,5.82-6.4,6.42-10.74l3.96-28.78c.54-4.05,4.16-6.92,8.21-6.56,20.59,1.99,40.35,1.84,60.47-.27,4.14-.43,7.72,2.44,8.3,6.54l4.05,29.61c.6,4.3,2.84,8.15,6.38,10.72,2.82,2.1,6.11,3.16,9.58,3.16.9,0,1.77-.02,2.69-.2,21.71-3.58,43.15-9.2,63.74-16.67,4.16-1.5,7.45-4.59,9.27-8.64,1.79-4.05,1.86-8.53.22-12.62l-11.35-27.73c-1.52-3.78.16-8.06,3.87-9.78,8.82-4.01,17.35-8.39,25.4-13.05,9.06-5.26,18.11-11.12,26.79-17.41,3.33-2.46,7.95-1.77,10.47,1.48l18.8,24.26c2.71,3.49,6.58,5.64,10.94,6.15,4.39.47,8.68-.81,12.11-3.63,16.92-14.01,32.7-29.66,46.82-46.53,2.89-3.42,4.19-7.72,3.72-12.15-.45-4.41-2.64-8.28-6.11-10.99l-24.22-18.73c-3.22-2.53-3.89-7.07-1.52-10.41,5.62-7.95,10.81-16,15.44-24.02,5.28-9.11,10.12-18.69,14.5-28.54,1.7-3.74,5.95-5.48,9.8-3.92l29.03,11.86c4.05,1.63,8.53,1.59,12.53-.18,4.05-1.77,7.14-5.06,8.64-9.2,7.68-20.64,13.43-42.14,17.19-63.97.76-4.34-.29-8.73-2.93-12.31-2.55-3.54-6.4-5.82-10.74-6.42ZM512.94,492.52c-.56,8.1-4.25,15.49-10.39,20.84-5.51,4.81-12.62,7.48-19.94,7.48-8.84,0-17.19-3.8-22.96-10.45l-80.46-92.39c-4.52-5.21-3.96-13.09,1.21-17.61l3.36-2.89-20.59-23.63-19.63,22.9,3.38,2.89c2.51,2.15,4.05,5.17,4.3,8.5.27,3.33-.78,6.56-2.95,9.06l-79.79,93.02c-5.77,6.74-14.17,10.61-23.1,10.61-7.25,0-14.28-2.62-19.79-7.32-12.71-10.92-14.19-30.15-3.27-42.9l79.77-92.99c2.15-2.53,5.17-4.05,8.53-4.32,3.36-.22,6.56.83,9.06,2.98l3.36,2.86,22.2-25.87-26.01-29.88c-8.53,4.54-18.06,6.96-27.84,6.96-1.39,0-2.78-.04-4.16-.16-15.87-1.1-30.37-8.28-40.82-20.3-17.84-20.48-19.58-50.38-4.27-72.74.9-1.3,2.33-2.1,3.87-2.22,1.39-.16,2.98.47,4.07,1.75l26.48,30.42c.9,1.01,1.32,2.33,1.23,3.63l-.85,12.58,26.95,1.88,1.86-26.97-12.58-.85c-1.34-.11-2.57-.72-3.45-1.72l-26.48-30.44c-1.03-1.16-1.45-2.73-1.16-4.27.34-1.5,1.32-2.82,2.73-3.51,24.24-12.09,53.63-6.24,71.44,14.23,10.47,12.02,15.62,27.35,14.5,43.24-.76,11.28-4.63,21.84-11.12,30.77l23.41,26.86,53.98-62.96-4.97-21.82,47.96-28.74,20.95,17.97-21.08,51.77-22.31-1.57-56.6,65.96,23.19,26.61,3.31-2.91c5.19-4.52,13.07-3.98,17.59,1.21l80.46,92.41c5.35,6.13,7.99,13.97,7.43,22.07Z"/>
  </g>
  <g>
    <g>
      <circle class="cls-2" cx="112.33" cy="394.52" r="9.24"/>
      <circle class="cls-2" cx="601.96" cy="352.08" r="9.24"/>
    </g>
    <g>
      <path class="cls-1" d="M92.88,257.35c2.52-6.06,9.45-8.98,15.51-6.46l42.26,17.57-4.82,11.6-17.14-7.13-12.53,30.14,17.14,7.13-4.76,11.45-42.25-17.57c-6.06-2.52-8.91-9.42-6.39-15.48l12.99-31.25ZM117.16,268.14l-13-5.41-12.53,30.14,13,5.41,12.53-30.14Z"/>
      <path class="cls-1" d="M151.24,246.19l20.09-25.72-35.56-27.77,7.73-9.9,36.06,28.17c5.17,4.04,6.03,11.51,2.04,16.62l-20.88,26.73c-4.04,5.17-11.45,6.08-16.62,2.04l-36.06-28.17,7.63-9.77,35.56,27.77Z"/>
      <path class="cls-1" d="M201.66,135.61l7.58,9.92-17.93,13.7,27.39,35.86-9.92,7.58-27.39-35.86-17.93,13.7-7.58-9.92,45.77-34.97Z"/>
      <path class="cls-1" d="M258.71,109.21c5.97-2.52,12.96.27,15.51,6.32l13.17,31.26c2.55,6.05-.34,12.99-6.32,15.51l-31.26,13.17c-6.05,2.55-12.96-.27-15.51-6.32l-13.17-31.26c-2.55-6.05.27-12.96,6.32-15.51l31.26-13.17ZM245.48,163.75l30.08-12.67-12.67-30.08-30.08,12.67,12.67,30.08Z"/>
      <path class="cls-1" d="M365.02,92.5c6.56-.22,12.09,4.95,12.31,11.43l.5,14.87c.22,6.48-4.96,12.01-11.51,12.24l-33.26,1.21c.16,0,.25.15.26.47,0,0-.16,0-.24-.07l.63,18.47-12.39.42-1.95-57.49,45.65-1.55ZM332.64,119.69l32.62-1.1-.46-13.67-32.62,1.11.46,13.67Z"/>
      <path class="cls-1" d="M438.87,104.27c6.39,1.48,10.42,7.83,8.94,14.23l-10.33,44.58-12.24-2.83,4.19-18.08-31.8-7.37-4.19,18.08-12.08-2.8,10.33-44.58c1.48-6.39,7.82-10.34,14.21-8.86l32.97,7.64ZM432.25,130l3.18-13.72-31.8-7.37-3.18,13.72,31.8,7.37Z"/>
      <path class="cls-1" d="M508.16,165.24c-3.07,5.71-10.33,7.89-16.11,4.78l-.49-.27c1.32,6.16,2.77,12.75,4.02,18.88l-2.01,3.73-11.27-6.06-5.04-24.24-14.55-7.74c.14.08.14.25-.02.54,0,0-.14-.08-.17-.18l-8.76,16.27-10.92-5.88,27.25-50.65,40.22,21.64c5.78,3.11,7.96,10.37,4.89,16.07l-7.05,13.1ZM468.66,143.27l28.74,15.46,6.48-12.05-28.74-15.46-6.48,12.05Z"/>
      <path class="cls-1" d="M576.91,190.89l-8.5,9.13-16.51-15.37-30.75,33.02-9.13-8.51,30.75-33.02-16.51-15.37,8.5-9.13,42.15,39.25Z"/>
      <path class="cls-1" d="M604.2,261.76l-6.75-10.59,3.98-2.54-17.55-27.52-8.5,5.42,17.93,28.13c3.48,5.46,1.91,12.82-3.62,16.35l-9.58,6.11c-5.53,3.53-12.87,1.84-16.35-3.62l-18.23-28.6c-3.53-5.53-1.91-12.82,3.62-16.35l4.52-2.88,6.67,10.46-3.98,2.54,17.55,27.52,8.5-5.42-17.85-28c-3.53-5.53-1.91-12.82,3.62-16.35l9.58-6.11c5.53-3.53,12.82-1.91,16.35,3.62l18.23,28.6c3.48,5.46,1.91,12.82-3.62,16.35l-4.52,2.88Z"/>
    </g>
    <g>
      <path class="cls-1" d="M146.16,458.31c-.41-.9-1.53-1.32-2.43-.91l-20.55,9.31c-.9.41-1.32,1.53-.91,2.43l11.6,25.6-3.47,1.57-11.6-25.6c-1.3-2.87-.06-6.16,2.81-7.46l20.55-9.31c2.87-1.3,6.17-.06,7.46,2.81l11.6,25.6-3.47,1.57-11.6-25.6Z"/>
      <path class="cls-1" d="M189.51,521.96c1.96,2.47,1.56,5.97-.91,7.92l-22.08,17.54-2.37-2.98,9.68-7.69-16.31-20.53-9.68,7.69-2.37-2.98,22.08-17.54c2.47-1.96,5.96-1.56,7.92.91l14.03,17.66ZM176.81,534.38l9.42-7.48c.77-.61.91-1.8.29-2.58l-14.03-17.66c-.61-.77-1.8-.91-2.58-.3l-9.42,7.48,16.31,20.53Z"/>
      <path class="cls-1" d="M225.26,574.03c-1.89,2.46-5.41,2.95-7.91,1.04l-4.1-3.15.75,16.46-3.99-3.06-.71-16.43-9.84-7.56c-.37-.29-.84-.76-1.34-1.27l-7.79,10.13-3.02-2.32,20.59-26.79,22.36,17.18c2.5,1.92,2.92,5.45,1.03,7.91l-6.04,7.86ZM219.7,572c.78.6,1.9.45,2.5-.33l6.04-7.86c.6-.78.48-1.94-.3-2.54l-17.88-13.74c-.78-.6-1.97-.45-2.57.34l-6.04,7.86c-.6.78-.42,1.93.36,2.53l17.88,13.74Z"/>
      <path class="cls-1" d="M310.19,600.14l-3.66-1.04.36-1.27c.27-.95-.31-1.99-1.26-2.26l-21.7-6.17c-.95-.27-1.99.31-2.26,1.26l-2.07,7.28c-.27.95.33,1.95,1.28,2.22l21.7,6.17c3.03.86,4.73,3.98,3.88,6.97l-2.07,7.28c-.86,3.03-3.94,4.74-6.97,3.88l-21.7-6.17c-3.03-.86-4.74-3.94-3.88-6.97l.36-1.27,3.66,1.04-.36,1.27c-.27.95.31,1.99,1.26,2.26l21.7,6.17c.95.27,1.99-.31,2.26-1.26l2.07-7.28c.27-.95-.33-1.95-1.27-2.22l-21.7-6.17c-3.03-.86-4.73-3.98-3.88-6.97l2.07-7.28c.86-3.03,3.94-4.74,6.97-3.88l21.7,6.17c3.03.86,4.74,3.94,3.88,6.97l-.36,1.27Z"/>
      <path class="cls-1" d="M363.36,601.45l-27.05-1.01-.42,11.18,21.75.81-.14,3.85-21.75-.81-.42,11.18,27.05,1.01-.14,3.8-30.86-1.15,1.26-33.82,30.86,1.15-.14,3.8Z"/>
      <path class="cls-1" d="M420.38,604.75c.61,3.04-1.33,6.02-4.42,6.64l-5.07,1.02,12.9,10.26-4.93.99-12.85-10.27-12.17,2.45c-.46.09-1.12.13-1.83.18l2.52,12.53-3.73.75-6.66-33.13,27.65-5.56c3.09-.62,6.03,1.38,6.64,4.42l1.95,9.72ZM415.2,607.61c.97-.19,1.59-1.14,1.4-2.1l-1.96-9.72c-.19-.97-1.14-1.64-2.11-1.45l-22.12,4.45c-.97.19-1.63,1.19-1.44,2.16l1.95,9.72c.19.97,1.18,1.58,2.15,1.39l22.12-4.45Z"/>
      <path class="cls-1" d="M470.15,566.77l4-1.98c-.85,13.47-1.69,25.57-2.56,39l-3.96,1.95c-10.93-7.29-21.7-14.35-32.55-21.68l4-1.98,28.88,19.34,2.18-34.67Z"/>
      <path class="cls-1" d="M490.67,552.14l3.01-2.34,20.78,26.72-3.01,2.34-20.78-26.72Z"/>
      <path class="cls-1" d="M517.87,533.55c-.66.74-.59,1.93.15,2.59l16.86,14.99c.74.66,1.93.59,2.59-.15l18.68-21,2.84,2.53-18.68,21.01c-2.09,2.35-5.61,2.56-7.96.47l-16.86-14.99c-2.35-2.09-2.56-5.61-.47-7.96l18.68-21,2.85,2.53-18.68,21.01Z"/>
      <path class="cls-1" d="M563.25,467.48l-12.74,23.89,9.87,5.26,10.24-19.2,3.4,1.81-10.24,19.2,9.87,5.26,12.74-23.89,3.36,1.79-14.53,27.25-29.86-15.92,14.53-27.25,3.36,1.79Z"/>
      <path class="cls-1" d="M582.59,415.63l-.94,3.69-1.27-.33c-.96-.24-1.98.36-2.23,1.32l-5.6,21.85c-.25.96.37,1.99,1.32,2.23l7.33,1.88c.96.24,1.94-.38,2.18-1.33l5.6-21.85c.78-3.05,3.86-4.83,6.86-4.06l7.33,1.88c3.05.78,4.84,3.81,4.06,6.86l-5.6,21.85c-.78,3.05-3.81,4.84-6.86,4.06l-1.28-.33.94-3.69,1.28.33c.96.24,1.98-.36,2.23-1.32l5.6-21.85c.24-.96-.37-1.99-1.32-2.23l-7.33-1.88c-.96-.24-1.94.38-2.19,1.33l-5.59,21.85c-.78,3.05-3.86,4.83-6.86,4.06l-7.33-1.88c-3.05-.78-4.85-3.81-4.06-6.86l5.59-21.85c.78-3.05,3.81-4.85,6.86-4.06l1.27.33Z"/>
    </g>
  </g>
</svg>