<?xml version="1.0" encoding="UTF-8"?>
<svg id="Layer_1" data-name="Layer 1" xmlns="http://www.w3.org/2000/svg" viewBox="0 0 949.33 826.56">
  <defs>
    <style>
      .cls-1 {
        fill: #fff;
      }

      .cls-2 {
        fill: #002a47;
      }
    </style>
  </defs>
  <circle class="cls-2" cx="473.81" cy="295.71" r="229.38"/>
  <g>
    <g>
      <g>
        <path class="cls-1" d="M406.57,328.25l-67.16,78.29c-3.57,4.16-5.3,9.46-4.88,14.95.42,5.47,2.93,10.47,7.09,14.04,8.6,7.36,21.6,6.38,28.99-2.24l67.16-78.3-31.2-26.75ZM350.12,417.43c-.96,1.11-2.36,1.75-3.84,1.75-1.21,0-2.39-.42-3.3-1.21-2.12-1.82-2.36-5.02-.54-7.14l61.23-71.4c.89-1.03,2.12-1.65,3.45-1.75,1.38-.12,2.68.32,3.69,1.21,2.12,1.82,2.36,5.02.57,7.14l-61.25,71.4ZM365.93,430.95c-.96,1.13-2.36,1.77-3.87,1.77-1.21,0-2.36-.44-3.3-1.23-1.01-.86-1.65-2.09-1.75-3.45-.1-1.35.32-2.66,1.21-3.69l61.23-71.37c.89-1.03,2.12-1.65,3.47-1.75,1.33-.1,2.66.32,3.69,1.21,1.01.86,1.63,2.09,1.75,3.45.1,1.35-.34,2.66-1.21,3.69l-61.23,71.37Z"/>
        <path class="cls-1" d="M609.81,406.45l-67.73-77.8-31.01,26.97,67.75,77.8c7.44,8.55,20.44,9.43,28.99,2.02,4.14-3.62,6.63-8.62,6.99-14.09.39-5.49-1.4-10.76-5-14.9ZM590.64,431.54c-.94.79-2.12,1.23-3.35,1.23-1.45,0-2.83-.62-3.82-1.72l-61.74-70.93c-1.85-2.12-1.63-5.32.49-7.17,2.09-1.82,5.3-1.6,7.14.49l61.77,70.93c.89,1.03,1.33,2.34,1.23,3.69-.1,1.35-.71,2.59-1.72,3.47ZM606.31,417.88c-.91.81-2.09,1.26-3.32,1.26-1.45,0-2.86-.64-3.82-1.75l-61.77-70.93c-.89-1.01-1.31-2.31-1.23-3.67.1-1.35.71-2.59,1.75-3.47,2.09-1.85,5.3-1.63,7.14.49l61.77,70.93c.89,1.01,1.31,2.31,1.23,3.67-.1,1.35-.71,2.59-1.75,3.47Z"/>
        <path class="cls-1" d="M474.67,61.96c-128.37,0-232.42,104.06-232.42,232.42s104.06,232.45,232.42,232.45,232.42-104.06,232.42-232.45-104.06-232.42-232.42-232.42ZM624.93,422.04c-.57,8.18-4.29,15.64-10.47,21.03-5.57,4.85-12.73,7.54-20.12,7.54-8.92,0-17.34-3.84-23.18-10.54l-81.18-93.22c-4.56-5.25-3.99-13.2,1.23-17.76l3.37-2.93-20.76-23.84-19.8,23.1,3.4,2.91c2.54,2.17,4.09,5.22,4.33,8.6.27,3.35-.79,6.6-2.98,9.14l-80.49,93.84c-5.84,6.8-14.31,10.71-23.3,10.71-7.31,0-14.41-2.64-19.97-7.39-12.83-11.01-14.31-30.42-3.3-43.27l80.49-93.84c2.17-2.54,5.22-4.09,8.6-4.36,3.4-.22,6.63.84,9.14,3l3.4,2.91,22.39-26.11-26.23-30.15c-8.6,4.58-18.23,7.02-28.08,7.02-1.4,0-2.81-.05-4.21-.15-16.01-1.11-30.64-8.37-41.18-20.49-18-20.66-19.75-50.83-4.31-73.39.89-1.31,2.34-2.12,3.89-2.22,1.4-.17,3,.47,4.11,1.75l26.72,30.69c.89,1.01,1.33,2.34,1.23,3.67l-.86,12.68,27.19,1.9,1.87-27.21-12.68-.86c-1.35-.1-2.59-.71-3.47-1.72l-26.72-30.71c-1.03-1.18-1.45-2.76-1.16-4.31.32-1.53,1.33-2.86,2.73-3.55,24.46-12.19,54.11-6.3,72.09,14.36,10.57,12.12,15.76,27.58,14.63,43.62-.76,11.38-4.68,22.04-11.23,31.06l23.62,27.09,54.48-63.52-5.02-22.02,48.4-28.99,21.13,18.13-21.28,52.24-22.51-1.6-57.09,66.55,23.37,26.85,3.35-2.93c5.25-4.56,13.2-4.01,17.76,1.23l81.18,93.22c5.39,6.18,8.05,14.09,7.49,22.26Z"/>
      </g>
      <path class="cls-1" d="M740.02,327.57l-23.87-3.24c-3.15-.46-5.37-3.28-5.07-6.42.72-7.5,1.08-14.93,1.08-22.14,0-8.16-.46-16.47-1.31-24.79-.33-3.17,1.9-5.99,5.07-6.45l24.11-3.28c3.37-.46,6.35-2.23,8.35-4.98,2.04-2.79,2.85-6.19,2.26-9.56-2.91-16.94-7.37-33.64-13.33-49.65-1.18-3.24-3.57-5.77-6.71-7.14-3.11-1.38-6.58-1.41-9.72-.13l-22.31,9.1c-2.94,1.21-6.25-.13-7.59-3.01-3.11-6.82-6.52-13.46-10.12-19.72-4.09-7.04-8.65-14.05-13.53-20.8-1.89-2.58-1.38-6.16,1.15-8.12l18.99-14.71c2.69-2.09,4.39-5.11,4.75-8.51.36-3.44-.65-6.78-2.88-9.43-10.97-13.1-23.21-25.25-36.35-36.12-2.66-2.19-5.96-3.17-9.4-2.81-3.38.39-6.39,2.06-8.48,4.75l-14.48,18.67c-1.93,2.53-5.47,3.02-8.06,1.18-6.12-4.35-12.38-8.38-18.63-11.98-7.08-4.06-14.51-7.86-22.14-11.26-2.91-1.28-4.26-4.65-3.05-7.6l8.91-21.74c1.27-3.18,1.21-6.65-.16-9.79-1.41-3.15-3.96-5.54-7.2-6.71-15.98-5.79-32.62-10.15-49.46-12.94-3.4-.56-6.78.23-9.53,2.26-2.75,2.03-4.49,4.98-4.94,8.35l-3.11,22.76c-.46,3.15-3.24,5.37-6.42,5.07-15.95-1.5-31.28-1.41-46.92.23-3.15.36-6-1.9-6.42-5.07l-3.11-22.57c-.46-3.37-2.23-6.35-4.98-8.35-2.79-2.04-6.19-2.85-9.59-2.23-16.8,2.95-33.34,7.44-49.19,13.37-3.21,1.21-5.73,3.6-7.1,6.74-1.38,3.11-1.41,6.55-.13,9.7l8.44,20.69c1.21,2.95-.13,6.26-3.01,7.6-6.81,3.11-13.46,6.52-19.71,10.12-7.04,4.09-14.05,8.65-20.8,13.52-2.59,1.9-6.16,1.38-8.12-1.14l-13.52-17.45c-2.1-2.72-5.11-4.39-8.52-4.75-3.44-.35-6.78.66-9.43,2.89-12.97,10.87-24.98,22.99-35.76,35.99-2.2,2.66-3.21,5.99-2.82,9.4.36,3.38,2.06,6.39,4.75,8.48l17.13,13.27c2.49,1.96,3.01,5.5,1.18,8.12-4.36,6.13-8.38,12.38-11.98,18.6-4.07,7.08-7.87,14.51-11.27,22.14-1.27,2.91-4.62,4.26-7.6,3.04l-20.14-8.22c-3.18-1.31-6.62-1.24-9.76.14-3.15,1.38-5.54,3.93-6.71,7.17-5.8,15.82-10.19,32.33-13.01,48.99-.59,3.41.2,6.82,2.23,9.57,2.04,2.75,5.01,4.51,8.39,4.98l21.18,2.88c3.15.46,5.37,3.28,5.08,6.42-.72,7.5-1.08,14.93-1.08,22.14,0,8.15.46,16.51,1.31,24.79.36,3.18-1.9,5.99-5.07,6.42l-21.42,2.95c-3.38.46-6.35,2.23-8.39,4.98-2.03,2.75-2.81,6.16-2.23,9.56,2.82,16.67,7.2,33.18,13.01,49,1.18,3.24,3.57,5.79,6.71,7.17,3.14,1.38,6.58,1.44,9.76.13l19.91-8.12c2.95-1.18,6.29.13,7.6,3.01,3.11,6.84,6.54,13.46,10.12,19.71,4.09,7.04,8.64,14.05,13.56,20.8,1.87,2.59,1.34,6.16-1.18,8.12l-17.33,13.43c-2.68,2.09-4.39,5.11-4.75,8.48-.36,3.4.62,6.75,2.82,9.4,10.77,13.01,22.79,25.12,35.76,36,2.66,2.23,5.99,3.28,9.43,2.88,3.41-.36,6.42-2.03,8.52-4.75l13.39-17.26c1.93-2.49,5.5-3.01,8.09-1.18,6.12,4.36,12.38,8.38,18.6,11.98,7.08,4.07,14.51,7.87,22.14,11.27,2.92,1.27,4.26,4.65,3.05,7.6l-8.55,20.93c-1.28,3.14-1.25,6.58.13,9.69,1.38,3.15,3.9,5.54,7.1,6.75,15.89,5.92,32.43,10.41,49.19,13.36,3.4.62,6.81-.16,9.59-2.23,2.75-2,4.52-4.98,4.98-8.35l3.08-22.34c.43-3.15,3.24-5.37,6.39-5.08,15.98,1.54,31.31,1.41,46.93-.22,3.21-.33,5.99,1.9,6.45,5.07l3.15,22.99c.46,3.34,2.19,6.32,4.94,8.32,2.19,1.63,4.75,2.45,7.44,2.45.69,0,1.38-.03,2.09-.16,16.83-2.78,33.48-7.14,49.46-12.93,3.24-1.18,5.79-3.57,7.2-6.71,1.38-3.15,1.44-6.62.16-9.79l-8.81-21.52c-1.18-2.95.13-6.25,3.01-7.6,6.85-3.11,13.46-6.52,19.72-10.12,7.04-4.09,14.05-8.64,20.79-13.52,2.59-1.9,6.16-1.38,8.12,1.14l14.61,18.84c2.1,2.72,5.11,4.39,8.48,4.78,3.4.36,6.74-.62,9.4-2.82,13.14-10.87,25.38-23.02,36.35-36.12,2.23-2.66,3.24-5.99,2.88-9.43-.35-3.41-2.06-6.42-4.75-8.52l-18.79-14.54c-2.49-1.97-3.02-5.5-1.18-8.09,4.36-6.16,8.39-12.41,11.99-18.64,4.09-7.07,7.86-14.5,11.26-22.14,1.31-2.91,4.62-4.26,7.6-3.04l22.53,9.21c3.14,1.27,6.61,1.24,9.72-.14,3.15-1.38,5.54-3.93,6.71-7.14,5.96-16.02,10.41-32.72,13.33-49.65.59-3.37-.22-6.78-2.26-9.56-2-2.75-4.98-4.52-8.35-4.98ZM473.81,525.09c-127.77,0-231.71-103.95-231.71-231.71,0-76.67,37.43-144.76,94.98-186.96.37-.21.72-.45,1.07-.7,6.55-4.75,13.37-9.21,20.21-13.17,6.09-3.5,12.54-6.81,19.16-9.83.43-.2.84-.41,1.23-.64h0c21.2-9.58,44.08-16.06,68.07-18.85,1.21.24,2.47.3,3.77.17,15.23-1.61,30.09-1.7,45.62-.23,1.08.1,2.14.06,3.16-.1,23.28,2.56,45.53,8.59,66.22,17.55,1.01.96,2.2,1.77,3.55,2.37,7.4,3.31,14.64,6.97,21.52,10.94,6.06,3.51,12.15,7.44,18.11,11.66.82.59,1.68,1.06,2.57,1.42,18.69,13.81,35.23,30.38,49.03,49.08.39,1.09.94,2.14,1.65,3.12,4.75,6.58,9.21,13.39,13.17,20.24,3.5,6.09,6.81,12.51,9.82,19.16.31.67.68,1.31,1.08,1.9,9.43,21.46,15.7,44.62,18.21,68.89-.06.74-.05,1.5.03,2.27.57,5.39.95,10.79,1.13,16.14.05,1.86.07,3.72.07,5.58,0,127.76-103.94,231.71-231.71,231.71Z"/>
    </g>
    <g>
      <g>
        <path class="cls-1" d="M86.67,623c10.02,0,18.21,8.07,18.21,18.09v69.92h-19.19v-28.36h-49.87v28.36h-18.95v-69.92c0-10.02,8.07-18.09,18.09-18.09h51.71ZM85.69,663.58v-21.51h-49.87v21.51h49.87Z"/>
        <path class="cls-1" d="M137.52,691.94h49.87v-68.94h19.19v69.92c0,10.02-8.19,18.09-18.09,18.09h-51.83c-10.02,0-18.09-8.07-18.09-18.09v-69.92h18.95v68.94Z"/>
        <path class="cls-1" d="M303.65,623v19.07h-34.47v68.94h-19.07v-68.94h-34.47v-19.07h88.01Z"/>
        <path class="cls-1" d="M382.49,623c9.9,0,18.09,8.07,18.09,18.09v51.83c0,10.02-8.19,18.09-18.09,18.09h-51.83c-10.02,0-18.09-8.07-18.09-18.09v-51.83c0-10.02,8.07-18.09,18.09-18.09h51.83ZM331.52,691.94h49.87v-49.87h-49.87v49.87Z"/>
        <path class="cls-1" d="M523.19,623.12c10.02,0,18.21,8.19,18.21,18.09v22.74c0,9.9-8.19,18.09-18.21,18.09l-50.85.12c.24,0,.37.24.37.73,0,0-.24,0-.37-.12v28.24h-18.95v-87.89h69.8ZM472.34,662.97h49.87v-20.9h-49.87v20.9Z"/>
        <path class="cls-1" d="M620.13,623c10.02,0,18.21,8.07,18.21,18.09v69.92h-19.19v-28.36h-49.87v28.36h-18.95v-69.92c0-10.02,8.07-18.09,18.09-18.09h51.71ZM619.15,663.58v-21.51h-49.87v21.51h49.87Z"/>
        <path class="cls-1" d="M740.17,663.95c0,9.9-8.19,18.09-18.21,18.09h-.86c6.23,7.33,12.96,15.16,19.07,22.49v6.48h-19.56l-24.33-28.97-25.18.12c.24,0,.37.24.37.73,0,0-.24,0-.37-.12v28.24h-18.95v-87.89h69.8c10.02,0,18.21,8.19,18.21,18.09v22.74ZM671.11,662.97h49.87v-20.9h-49.87v20.9Z"/>
        <path class="cls-1" d="M836.74,623v19.07h-34.47v68.94h-19.07v-68.94h-34.47v-19.07h88.01Z"/>
        <path class="cls-1" d="M933.32,649.28h-19.19v-7.21h-49.87v15.4h50.97c9.9,0,18.09,8.07,18.09,18.09v17.36c0,10.02-8.19,18.09-18.09,18.09h-51.83c-10.02,0-18.09-8.07-18.09-18.09v-8.19h18.95v7.21h49.87v-15.4h-50.73c-10.02,0-18.09-8.07-18.09-18.09v-17.36c0-10.02,8.07-18.09,18.09-18.09h51.83c9.9,0,18.09,8.07,18.09,18.09v8.19Z"/>
      </g>
      <g>
        <path class="cls-1" d="M182.17,764.81c-1.46,0-2.71,1.25-2.71,2.71v33.31c0,1.46,1.25,2.71,2.71,2.71h41.5v5.62h-41.5c-4.65,0-8.33-3.68-8.33-8.33v-33.31c0-4.65,3.68-8.33,8.33-8.33h41.5v5.62h-41.5Z"/>
        <path class="cls-1" d="M272.66,759.18c4.65,0,8.33,3.68,8.33,8.33v41.64h-5.62v-18.25h-38.72v18.25h-5.62v-41.64c0-4.65,3.68-8.33,8.33-8.33h33.31ZM275.37,785.28v-17.77c0-1.46-1.25-2.71-2.71-2.71h-33.31c-1.46,0-2.71,1.25-2.71,2.71v17.77h38.72Z"/>
        <path class="cls-1" d="M338.8,782.22c0,4.58-3.68,8.33-8.33,8.33h-7.63l15.68,18.6h-7.43l-15.61-18.6h-18.32c-.69,0-1.67-.14-2.71-.28v18.88h-5.62v-49.9h41.64c4.65,0,8.33,3.75,8.33,8.33v14.64ZM330.47,784.86c1.46,0,2.64-1.18,2.64-2.64v-14.64c0-1.46-1.18-2.71-2.64-2.71h-33.31c-1.46,0-2.71,1.25-2.71,2.71v14.64c0,1.46,1.25,2.64,2.71,2.64h33.31Z"/>
        <path class="cls-1" d="M414.64,769.46h-5.62v-1.94c0-1.46-1.25-2.71-2.71-2.71h-33.31c-1.46,0-2.71,1.25-2.71,2.71v11.17c0,1.46,1.25,2.64,2.71,2.64h33.31c4.65,0,8.33,3.75,8.33,8.33v11.17c0,4.65-3.68,8.33-8.33,8.33h-33.31c-4.65,0-8.33-3.68-8.33-8.33v-1.94h5.62v1.94c0,1.46,1.25,2.71,2.71,2.71h33.31c1.46,0,2.71-1.25,2.71-2.71v-11.17c0-1.46-1.25-2.64-2.71-2.64h-33.31c-4.65,0-8.33-3.75-8.33-8.33v-11.17c0-4.65,3.68-8.33,8.33-8.33h33.31c4.65,0,8.33,3.68,8.33,8.33v1.94Z"/>
        <path class="cls-1" d="M467.8,764.81h-39.97v16.52h32.13v5.69h-32.13v16.52h39.97v5.62h-45.59v-49.97h45.59v5.62Z"/>
        <path class="cls-1" d="M525.12,782.22c0,4.58-3.68,8.33-8.33,8.33h-7.63l15.68,18.6h-7.43l-15.61-18.6h-18.32c-.69,0-1.67-.14-2.71-.28v18.88h-5.62v-49.9h41.64c4.65,0,8.33,3.75,8.33,8.33v14.64ZM516.79,784.86c1.46,0,2.64-1.18,2.64-2.64v-14.64c0-1.46-1.18-2.71-2.64-2.71h-33.31c-1.46,0-2.71,1.25-2.71,2.71v14.64c0,1.46,1.25,2.64,2.71,2.64h33.31Z"/>
        <path class="cls-1" d="M587.43,759.18h6.59c-9.92,17.28-18.95,32.76-28.87,49.97h-6.52c-9.72-16.79-19.36-33.17-28.94-49.97h6.59l25.61,44.48,25.54-44.48Z"/>
        <path class="cls-1" d="M600.82,759.18h5.62v49.97h-5.62v-49.97Z"/>
        <path class="cls-1" d="M624.35,764.81c-1.46,0-2.71,1.25-2.71,2.71v33.31c0,1.46,1.25,2.71,2.71,2.71h41.5v5.62h-41.5c-4.65,0-8.33-3.68-8.33-8.33v-33.31c0-4.65,3.68-8.33,8.33-8.33h41.5v5.62h-41.5Z"/>
        <path class="cls-1" d="M718.8,764.81h-39.97v16.52h32.13v5.69h-32.13v16.52h39.97v5.62h-45.59v-49.97h45.59v5.62Z"/>
        <path class="cls-1" d="M775.84,769.46h-5.62v-1.94c0-1.46-1.25-2.71-2.71-2.71h-33.31c-1.46,0-2.71,1.25-2.71,2.71v11.17c0,1.46,1.25,2.64,2.71,2.64h33.31c4.65,0,8.33,3.75,8.33,8.33v11.17c0,4.65-3.68,8.33-8.33,8.33h-33.31c-4.65,0-8.33-3.68-8.33-8.33v-1.94h5.62v1.94c0,1.46,1.25,2.71,2.71,2.71h33.31c1.46,0,2.71-1.25,2.71-2.71v-11.17c0-1.46-1.25-2.64-2.71-2.64h-33.31c-4.65,0-8.33-3.75-8.33-8.33v-11.17c0-4.65,3.68-8.33,8.33-8.33h33.31c4.65,0,8.33,3.68,8.33,8.33v1.94Z"/>
      </g>
    </g>
  </g>
</svg>