<?xml version="1.0" encoding="UTF-8"?>
<svg id="Layer_1" data-name="Layer 1" xmlns="http://www.w3.org/2000/svg" viewBox="0 0 1168 400">
  <defs>
    <style>
      .cls-1 {
        fill: #fff;
      }
    </style>
  </defs>
  <g>
    <g>
      <path class="cls-1" d="M145.02,221.62l-42.89,50c-2.28,2.66-3.38,6.04-3.11,9.55.27,3.49,1.87,6.68,4.53,8.96,5.49,4.7,13.79,4.07,18.51-1.43l42.89-50-19.93-17.08ZM108.97,278.56c-.61.71-1.51,1.12-2.45,1.12-.77,0-1.53-.27-2.11-.77-1.35-1.16-1.51-3.21-.35-4.56l39.1-45.59c.57-.66,1.35-1.05,2.2-1.12.88-.08,1.71.2,2.36.77,1.35,1.16,1.51,3.21.36,4.56l-39.11,45.59ZM119.07,287.2c-.61.72-1.51,1.13-2.47,1.13-.77,0-1.51-.28-2.11-.79-.64-.55-1.05-1.34-1.12-2.2-.06-.86.2-1.7.77-2.36l39.1-45.58c.57-.66,1.35-1.05,2.22-1.12.85-.06,1.7.2,2.36.77.64.55,1.04,1.34,1.12,2.2.06.86-.22,1.7-.77,2.36l-39.1,45.58Z"/>
      <path class="cls-1" d="M274.8,271.55l-43.25-49.68-19.8,17.22,43.27,49.68c4.75,5.46,13.05,6.02,18.51,1.29,2.64-2.31,4.23-5.5,4.47-9,.25-3.51-.9-6.87-3.19-9.51ZM262.56,287.58c-.6.5-1.35.79-2.14.79-.93,0-1.81-.39-2.44-1.1l-39.43-45.29c-1.18-1.35-1.04-3.4.31-4.58,1.34-1.16,3.38-1.02,4.56.31l39.44,45.29c.57.66.85,1.49.79,2.36-.06.87-.46,1.65-1.1,2.22ZM272.57,278.85c-.58.52-1.34.8-2.12.8-.93,0-1.82-.41-2.44-1.12l-39.44-45.29c-.57-.64-.83-1.48-.79-2.34.06-.87.46-1.65,1.12-2.22,1.34-1.18,3.38-1.04,4.56.31l39.44,45.29c.57.64.83,1.48.79,2.34-.06.86-.46,1.65-1.12,2.22Z"/>
      <path class="cls-1" d="M187.76,50.08c-82.38,0-149.16,66.78-149.16,149.17s66.78,149.18,149.16,149.18,149.16-66.78,149.16-149.18S270.14,50.08,187.76,50.08ZM284.19,281.17c-.36,5.25-2.75,10.04-6.72,13.5-3.57,3.11-8.17,4.84-12.91,4.84-5.72,0-11.13-2.47-14.87-6.77l-52.1-59.83c-2.92-3.37-2.56-8.47.79-11.4l2.17-1.88-13.32-15.3-12.71,14.83,2.18,1.87c1.63,1.39,2.62,3.35,2.78,5.52.17,2.15-.51,4.24-1.91,5.86l-51.66,60.22c-3.75,4.36-9.18,6.88-14.95,6.88-4.69,0-9.25-1.69-12.82-4.74-8.24-7.07-9.18-19.52-2.12-27.77l51.66-60.22c1.39-1.63,3.35-2.62,5.52-2.8,2.18-.14,4.25.54,5.86,1.93l2.18,1.87,14.37-16.75-16.83-19.35c-5.52,2.94-11.7,4.5-18.02,4.5-.9,0-1.8-.03-2.7-.09-10.27-.71-19.66-5.37-26.43-13.15-11.55-13.26-12.68-32.62-2.77-47.1.57-.84,1.5-1.36,2.5-1.42.9-.11,1.93.3,2.64,1.12l17.15,19.69c.57.65.85,1.5.79,2.36l-.55,8.14,17.45,1.22,1.2-17.47-8.14-.55c-.87-.06-1.66-.46-2.23-1.11l-17.15-19.71c-.66-.76-.93-1.77-.74-2.77.21-.98.85-1.83,1.75-2.28,15.7-7.82,34.73-4.05,46.27,9.22,6.78,7.78,10.12,17.7,9.39,27.99-.49,7.3-3,14.15-7.21,19.93l15.16,17.39,34.96-40.76-3.22-14.13,31.06-18.6,13.56,11.63-13.66,33.53-14.45-1.03-36.64,42.71,15,17.23,2.15-1.88c3.37-2.92,8.47-2.58,11.4.79l52.1,59.83c3.46,3.97,5.17,9.04,4.81,14.29Z"/>
    </g>
    <path class="cls-1" d="M357.95,221.18l-15.25-2.07c-2.01-.3-3.43-2.09-3.24-4.1.46-4.79.69-9.54.69-14.14,0-5.21-.29-10.52-.83-15.83-.21-2.03,1.21-3.83,3.24-4.12l15.39-2.09c2.15-.29,4.06-1.42,5.33-3.18,1.3-1.78,1.82-3.95,1.44-6.11-1.86-10.81-4.7-21.48-8.51-31.7-.75-2.07-2.28-3.68-4.29-4.56-1.99-.88-4.2-.9-6.21-.08l-14.25,5.81c-1.88.77-3.99-.08-4.85-1.92-1.99-4.35-4.16-8.6-6.46-12.59-2.61-4.5-5.52-8.97-8.64-13.28-1.21-1.65-.88-3.93.73-5.18l12.13-9.39c1.72-1.33,2.8-3.26,3.03-5.44.23-2.2-.42-4.33-1.84-6.02-7.01-8.37-14.82-16.12-23.21-23.07-1.7-1.4-3.8-2.03-6-1.8-2.16.25-4.08,1.32-5.42,3.03l-9.24,11.92c-1.23,1.61-3.49,1.93-5.14.75-3.91-2.78-7.91-5.35-11.9-7.65-4.52-2.59-9.27-5.02-14.14-7.19-1.86-.82-2.72-2.97-1.95-4.85l5.69-13.88c.81-2.03.77-4.25-.1-6.25-.9-2.01-2.53-3.54-4.6-4.29-10.21-3.7-20.83-6.48-31.58-8.26-2.17-.36-4.33.15-6.08,1.44-1.76,1.3-2.87,3.18-3.16,5.33l-1.99,14.54c-.29,2.01-2.07,3.43-4.1,3.24-10.18-.96-19.97-.9-29.96.15-2.01.23-3.83-1.21-4.1-3.24l-1.99-14.41c-.29-2.15-1.42-4.06-3.18-5.33-1.78-1.3-3.95-1.82-6.13-1.43-10.73,1.88-21.29,4.75-31.41,8.54-2.05.77-3.66,2.3-4.54,4.3-.88,1.99-.9,4.18-.08,6.19l5.39,13.21c.77,1.88-.08,4-1.92,4.85-4.35,1.99-8.6,4.16-12.59,6.46-4.5,2.61-8.97,5.52-13.28,8.64-1.65,1.21-3.93.88-5.19-.73l-8.64-11.14c-1.34-1.74-3.26-2.8-5.44-3.04-2.2-.23-4.33.42-6.02,1.84-8.28,6.94-15.95,14.68-22.83,22.98-1.4,1.7-2.05,3.83-1.8,6,.23,2.16,1.32,4.08,3.03,5.42l10.94,8.47c1.59,1.25,1.92,3.51.75,5.18-2.78,3.91-5.35,7.91-7.65,11.88-2.6,4.52-5.02,9.27-7.2,14.14-.81,1.86-2.95,2.72-4.85,1.94l-12.86-5.25c-2.03-.83-4.23-.79-6.23.09-2.01.88-3.54,2.51-4.29,4.58-3.7,10.1-6.51,20.64-8.31,31.28-.37,2.18.13,4.35,1.42,6.11,1.3,1.76,3.2,2.88,5.36,3.18l13.53,1.84c2.01.29,3.43,2.09,3.24,4.1-.46,4.79-.69,9.54-.69,14.14,0,5.21.29,10.54.83,15.83.23,2.03-1.21,3.83-3.24,4.1l-13.68,1.88c-2.16.29-4.06,1.42-5.36,3.18-1.3,1.76-1.8,3.93-1.42,6.11,1.8,10.64,4.6,21.19,8.31,31.29.75,2.07,2.28,3.7,4.29,4.58,2,.88,4.2.92,6.23.08l12.71-5.18c1.88-.76,4.01.08,4.85,1.92,1.98,4.37,4.18,8.6,6.46,12.59,2.61,4.5,5.52,8.97,8.66,13.28,1.19,1.65.86,3.93-.75,5.19l-11.07,8.57c-1.71,1.33-2.8,3.26-3.03,5.41-.23,2.17.4,4.31,1.8,6,6.88,8.31,14.55,16.04,22.83,22.99,1.7,1.42,3.83,2.09,6.02,1.84,2.18-.23,4.1-1.3,5.44-3.03l8.55-11.02c1.23-1.59,3.51-1.92,5.17-.75,3.91,2.78,7.91,5.35,11.88,7.65,4.52,2.6,9.27,5.02,14.14,7.2,1.87.81,2.72,2.97,1.95,4.85l-5.46,13.36c-.82,2-.8,4.2.08,6.19.88,2.01,2.49,3.54,4.54,4.31,10.14,3.78,20.71,6.65,31.41,8.53,2.17.4,4.35-.1,6.13-1.42,1.76-1.27,2.89-3.18,3.18-5.33l1.97-14.26c.27-2.01,2.07-3.43,4.08-3.24,10.21.98,19.99.9,29.97-.14,2.05-.21,3.83,1.21,4.12,3.24l2.01,14.68c.29,2.14,1.4,4.04,3.16,5.31,1.4,1.04,3.03,1.57,4.75,1.57.44,0,.88-.02,1.33-.1,10.75-1.77,21.38-4.56,31.58-8.26,2.07-.75,3.7-2.28,4.6-4.29.88-2.01.92-4.23.1-6.25l-5.63-13.74c-.75-1.88.08-3.99,1.92-4.85,4.37-1.98,8.6-4.16,12.59-6.46,4.5-2.61,8.97-5.52,13.28-8.64,1.65-1.21,3.94-.88,5.19.73l9.33,12.03c1.34,1.73,3.26,2.8,5.42,3.05,2.17.23,4.3-.4,6-1.8,8.39-6.94,16.21-14.7,23.21-23.06,1.42-1.7,2.07-3.83,1.84-6.02-.23-2.18-1.31-4.1-3.03-5.44l-12-9.28c-1.59-1.26-1.93-3.51-.76-5.17,2.78-3.93,5.36-7.93,7.66-11.9,2.61-4.51,5.02-9.26,7.19-14.14.83-1.86,2.95-2.72,4.85-1.94l14.39,5.88c2,.81,4.22.79,6.21-.09,2.01-.88,3.54-2.51,4.29-4.56,3.8-10.23,6.65-20.89,8.51-31.7.38-2.15-.14-4.33-1.44-6.11-1.27-1.76-3.18-2.89-5.33-3.18ZM187.96,347.31c-81.59,0-147.96-66.38-147.96-147.96,0-48.96,23.9-92.44,60.65-119.38.23-.13.46-.29.68-.45,4.18-3.04,8.54-5.88,12.91-8.41,3.89-2.24,8.01-4.35,12.23-6.27.27-.13.53-.26.78-.41h0c13.54-6.12,28.15-10.25,43.47-12.04.77.15,1.58.19,2.4.11,9.72-1.03,19.22-1.09,29.13-.15.69.07,1.37.04,2.02-.07,14.87,1.63,29.07,5.48,42.29,11.21.64.61,1.4,1.13,2.27,1.51,4.73,2.11,9.35,4.45,13.74,6.98,3.87,2.24,7.76,4.75,11.56,7.44.52.37,1.07.67,1.64.9,11.93,8.82,22.49,19.4,31.31,31.34.25.7.6,1.37,1.06,1.99,3.04,4.2,5.88,8.55,8.41,12.92,2.24,3.89,4.35,7.99,6.27,12.24.2.43.43.83.69,1.21,6.02,13.71,10.03,28.49,11.63,43.99-.04.47-.03.96.02,1.45.36,3.44.6,6.89.72,10.31.03,1.19.04,2.37.04,3.57,0,81.58-66.37,147.96-147.96,147.96Z"/>
  </g>
  <g>
    <g>
      <path class="cls-1" d="M466.28,124.85c8.1,0,14.73,6.52,14.73,14.63v56.53h-15.52v-22.93h-40.32v22.93h-15.32v-56.53c0-8.1,6.52-14.63,14.63-14.63h41.81ZM465.49,157.66v-17.39h-40.32v17.39h40.32Z"/>
      <path class="cls-1" d="M507.4,180.59h40.32v-55.74h15.52v56.53c0,8.1-6.62,14.63-14.63,14.63h-41.9c-8.1,0-14.63-6.52-14.63-14.63v-56.53h15.32v55.74Z"/>
      <path class="cls-1" d="M641.71,124.85v15.42h-27.87v55.74h-15.42v-55.74h-27.87v-15.42h71.16Z"/>
      <path class="cls-1" d="M705.46,124.85c8.01,0,14.63,6.52,14.63,14.63v41.9c0,8.1-6.62,14.63-14.63,14.63h-41.9c-8.1,0-14.63-6.52-14.63-14.63v-41.9c0-8.1,6.52-14.63,14.63-14.63h41.9ZM664.24,180.59h40.32v-40.32h-40.32v40.32Z"/>
      <path class="cls-1" d="M819.21,124.95c8.1,0,14.73,6.62,14.73,14.63v18.38c0,8.01-6.62,14.63-14.73,14.63l-41.11.1c.2,0,.3.2.3.59,0,0-.2,0-.3-.1v22.83h-15.32v-71.06h56.43ZM778.1,157.17h40.32v-16.9h-40.32v16.9Z"/>
      <path class="cls-1" d="M897.59,124.85c8.1,0,14.73,6.52,14.73,14.63v56.53h-15.52v-22.93h-40.32v22.93h-15.32v-56.53c0-8.1,6.52-14.63,14.63-14.63h41.81ZM896.8,157.66v-17.39h-40.32v17.39h40.32Z"/>
      <path class="cls-1" d="M994.64,157.96c0,8.01-6.62,14.63-14.73,14.63h-.69c5.04,5.93,10.48,12.26,15.42,18.19v5.24h-15.81l-19.67-23.42-20.36.1c.2,0,.3.2.3.59,0,0-.2,0-.3-.1v22.83h-15.32v-71.06h56.43c8.1,0,14.73,6.62,14.73,14.63v18.38ZM938.8,157.17h40.32v-16.9h-40.32v16.9Z"/>
      <path class="cls-1" d="M1072.72,124.85v15.42h-27.87v55.74h-15.42v-55.74h-27.87v-15.42h71.16Z"/>
      <path class="cls-1" d="M1150.8,146.1h-15.52v-5.83h-40.32v12.45h41.21c8.01,0,14.63,6.52,14.63,14.63v14.03c0,8.1-6.62,14.63-14.63,14.63h-41.9c-8.1,0-14.63-6.52-14.63-14.63v-6.62h15.32v5.83h40.32v-12.45h-41.01c-8.1,0-14.63-6.52-14.63-14.63v-14.03c0-8.1,6.52-14.63,14.63-14.63h41.9c8.01,0,14.63,6.52,14.63,14.63v6.62Z"/>
    </g>
    <g>
      <path class="cls-1" d="M413.99,239.5c-1.18,0-2.19,1.01-2.19,2.19v26.93c0,1.18,1.01,2.19,2.19,2.19h33.55v4.54h-33.55c-3.76,0-6.73-2.97-6.73-6.73v-26.93c0-3.76,2.97-6.73,6.73-6.73h33.55v4.54h-33.55Z"/>
      <path class="cls-1" d="M509.6,234.96c3.76,0,6.73,2.97,6.73,6.73v33.66h-4.54v-14.76h-31.31v14.76h-4.54v-33.66c0-3.76,2.97-6.73,6.73-6.73h26.93ZM511.78,256.05v-14.36c0-1.18-1.01-2.19-2.19-2.19h-26.93c-1.18,0-2.19,1.01-2.19,2.19v14.36h31.31Z"/>
      <path class="cls-1" d="M585.51,253.59c0,3.7-2.97,6.73-6.73,6.73h-6.17l12.68,15.04h-6l-12.62-15.04h-14.81c-.56,0-1.35-.11-2.19-.22v15.26h-4.54v-40.34h33.66c3.76,0,6.73,3.03,6.73,6.73v11.84ZM578.77,255.72c1.18,0,2.13-.95,2.13-2.13v-11.84c0-1.18-.95-2.19-2.13-2.19h-26.93c-1.18,0-2.19,1.01-2.19,2.19v11.84c0,1.18,1.01,2.13,2.19,2.13h26.93Z"/>
      <path class="cls-1" d="M691.71,243.26h-4.54v-1.57c0-1.18-1.01-2.19-2.19-2.19h-26.93c-1.18,0-2.19,1.01-2.19,2.19v9.03c0,1.18,1.01,2.13,2.19,2.13h26.93c3.76,0,6.73,3.03,6.73,6.73v9.03c0,3.76-2.97,6.73-6.73,6.73h-26.93c-3.76,0-6.73-2.97-6.73-6.73v-1.57h4.54v1.57c0,1.18,1.01,2.19,2.19,2.19h26.93c1.18,0,2.19-1.01,2.19-2.19v-9.03c0-1.18-1.01-2.13-2.19-2.13h-26.93c-3.76,0-6.73-3.03-6.73-6.73v-9.03c0-3.76,2.97-6.73,6.73-6.73h26.93c3.76,0,6.73,2.97,6.73,6.73v1.57Z"/>
      <path class="cls-1" d="M757.13,239.5h-32.32v13.35h25.98v4.6h-25.98v13.35h32.32v4.54h-36.86v-40.4h36.86v4.54Z"/>
      <path class="cls-1" d="M825.91,253.59c0,3.7-2.97,6.73-6.73,6.73h-6.17l12.68,15.04h-6l-12.62-15.04h-14.81c-.56,0-1.35-.11-2.19-.22v15.26h-4.54v-40.34h33.66c3.76,0,6.73,3.03,6.73,6.73v11.84ZM819.18,255.72c1.18,0,2.13-.95,2.13-2.13v-11.84c0-1.18-.95-2.19-2.13-2.19h-26.93c-1.18,0-2.19,1.01-2.19,2.19v11.84c0,1.18,1.01,2.13,2.19,2.13h26.93Z"/>
      <path class="cls-1" d="M898.74,234.96h5.33c-8.02,13.97-15.32,26.48-23.34,40.4h-5.27c-7.85-13.58-15.65-26.82-23.4-40.4h5.33l20.7,35.96,20.65-35.96Z"/>
      <path class="cls-1" d="M932.01,234.96h4.54v40.4h-4.54v-40.4Z"/>
      <path class="cls-1" d="M973.47,239.5c-1.18,0-2.19,1.01-2.19,2.19v26.93c0,1.18,1.01,2.19,2.19,2.19h33.55v4.54h-33.55c-3.76,0-6.73-2.97-6.73-6.73v-26.93c0-3.76,2.97-6.73,6.73-6.73h33.55v4.54h-33.55Z"/>
      <path class="cls-1" d="M1072.27,239.5h-32.32v13.35h25.98v4.6h-25.98v13.35h32.32v4.54h-36.86v-40.4h36.86v4.54Z"/>
      <path class="cls-1" d="M1140.83,243.26h-4.54v-1.57c0-1.18-1.01-2.19-2.19-2.19h-26.93c-1.18,0-2.19,1.01-2.19,2.19v9.03c0,1.18,1.01,2.13,2.19,2.13h26.93c3.76,0,6.73,3.03,6.73,6.73v9.03c0,3.76-2.97,6.73-6.73,6.73h-26.93c-3.76,0-6.73-2.97-6.73-6.73v-1.57h4.54v1.57c0,1.18,1.01,2.19,2.19,2.19h26.93c1.18,0,2.19-1.01,2.19-2.19v-9.03c0-1.18-1.01-2.13-2.19-2.13h-26.93c-3.76,0-6.73-3.03-6.73-6.73v-9.03c0-3.76,2.97-6.73,6.73-6.73h26.93c3.76,0,6.73,2.97,6.73,6.73v1.57Z"/>
    </g>
  </g>
</svg>