<svg
  xmlns="http://www.w3.org/2000/svg"
  width="410.667"
  height="405.907"
  viewBox="0 0 410.667 405.907"
>
  <defs>
    <style>
      .cls-1 {
        fill: #a48465;
      }
      .cls-2 {
        fill: #cdad8a;
      }
      .cls-6 {
        fill: #7f6b59;
      }
      .cls-7 {
        fill: #f0cfa8;
      }
      .cls-9 {
        fill: #2e5381;
      }
      .cls-10 {
        fill: #2e5381;
      }
    </style>
  </defs>
  <g id="Group_3996" transform="translate(-692.332 -266.032)">
    <g id="ms" transform="translate(692.333 266.032)">
      <path
        id="Path_1416"
        d="M285.468 303.1v130.839l-51.631 29.868-17.537 10.132-65.9 37.974V381.075l65.9-38.062 17.533-10.044z"
        class="cls-1"
        transform="translate(-74.805 -243.011)"
      />
      <path
        id="Path_1417"
        d="M217.978 430.631L200.357 420.5 150.4 391.6v130.927l49.957 28.811 17.621 10.132 67.49 39.031V469.575z"
        class="cls-2"
        transform="translate(-74.805 -253.536)"
      />
      <path
        id="Path_1418"
        d="M371.278 342.131l-17.533-10.22L303.7 303.1v130.839l50.045 28.9 17.533 10.132 67.578 38.943V381.075z"
        class="cls-2"
        transform="translate(-93.037 -243.011)"
      />
      <path
        id="Path_1419"
        d="M438.856 391.6v130.927l-51.719 29.78-17.537 10.132-65.9 38.061V469.575l65.9-37.975 17.533-10.132z"
        class="cls-1"
        transform="translate(-93.037 -253.536)"
      />
      <path
        id="Path_1420"
        fill="#e0c5a4"
        d="M224.721 434.532v130.839L207.1 555.239V424.4z"
        transform="translate(-81.548 -257.437)"
      />
      <g id="Group_3964" transform="translate(212.514 141.324)">
        <path
          id="Path_1421"
          fill="#8f6e4f"
          d="M437.168 396.622l-130.751 75.507c-.352.176-.617.088-.617-.264a1.2 1.2 0 0 1 .617-.969l130.751-75.508c.352-.176.617-.088.617.264a1.2 1.2 0 0 1-.617.97z"
          transform="translate(-305.8 -395.3)"
        />
      </g>
      <path
        id="Path_1422"
        fill="#bb9673"
        d="M396.033 425.5v130.839L378.5 566.471V435.632z"
        transform="translate(-101.933 -257.568)"
      />
      <g id="Group_3988" transform="translate(299.828 153.536)">
        <g id="Group_3975" transform="translate(20.617)">
          <g id="Group_3973" transform="translate(3.436 4.969)">
            <g id="Group_3965" transform="translate(0 5.991)">
              <path
                id="Path_1423"
                d="M437.839 422.569a3.162 3.162 0 0 0 0-.969 6.65 6.65 0 0 0-.881 1.41v.088a10.248 10.248 0 0 0-4.758 7.4 1.535 1.535 0 0 1 .7-1.057c.352-.176.617-.088.7.176l.088-.088a1.535 1.535 0 0 1 .7-1.057c.352-.176.617-.088.7.176l.088-.088a1.535 1.535 0 0 1 .7-1.057c.352-.176.617-.088.7.176l.088-.088a2.639 2.639 0 0 1 .352-.7v5.9a1.084 1.084 0 0 1-.44.881c-.264.176-.44 0-.44-.264v-.969c0-.264-.176-.352-.352-.264a.916.916 0 0 0-.352.7v.969c0 .793.529 1.145 1.234.793a2.846 2.846 0 0 0 1.233-2.2v-5.9c.176 0 .264.088.352.264l.088-.088a1.535 1.535 0 0 1 .7-1.057c.352-.176.617-.088.7.176l.088-.088a1.535 1.535 0 0 1 .7-1.057c.352-.176.617-.088.7.176l.088-.088a1.535 1.535 0 0 1 .7-1.057c.352-.176.617-.088.7.176.146.437-.206-3.794-4.876-1.325z"
                class="cls-6"
                transform="translate(-432.2 -421.6)"
              />
            </g>
            <g id="Group_3966" transform="translate(2.635 6.167)">
              <path
                id="Path_1424"
                d="M435.375 424c.176 0 .529-.264.7-.793a4.3 4.3 0 0 0 .088-1.41 6.651 6.651 0 0 0-.881 1.41c-.171.531-.082.793.093.793z"
                class="cls-6"
                transform="translate(-435.191 -421.8)"
              />
            </g>
            <g id="Group_3967" transform="translate(4.334 4.229)">
              <path
                id="Path_1425"
                d="M437.367 421.8c.176 0 .529-.264.7-.793a4.3 4.3 0 0 0 .088-1.41 6.654 6.654 0 0 0-.881 1.41c-.26.531-.174.793.093.793z"
                class="cls-6"
                transform="translate(-437.119 -419.6)"
              />
            </g>
            <g id="Group_3968" transform="translate(8.627 1.85)">
              <path
                id="Path_1426"
                d="M442.087 418.31c-.176.529-.088.793.088.793s.529-.264.7-.793a4.305 4.305 0 0 0 .088-1.41 6.652 6.652 0 0 0-.876 1.41z"
                class="cls-6"
                transform="translate(-441.991 -416.9)"
              />
            </g>
            <g id="Group_3969" transform="translate(8.979 3.965)">
              <path
                id="Path_1427"
                d="M442.487 420.71c-.176.529-.088.793.088.793s.529-.264.7-.793a4.3 4.3 0 0 0 .088-1.41 6.652 6.652 0 0 0-.876 1.41z"
                class="cls-6"
                transform="translate(-442.391 -419.3)"
              />
            </g>
            <g id="Group_3970" transform="translate(6.272 2.026)">
              <path
                id="Path_1428"
                d="M439.567 419.3c.176 0 .529-.264.7-.793a4.3 4.3 0 0 0 .088-1.41 6.651 6.651 0 0 0-.881 1.41c-.26.443-.174.793.093.793z"
                class="cls-6"
                transform="translate(-439.319 -417.1)"
              />
            </g>
            <g id="Group_3971" transform="translate(6.776 3.789)">
              <path
                id="Path_1429"
                d="M439.987 420.51c-.176.529-.088.793.088.793s.529-.264.7-.793a4.3 4.3 0 0 0 .088-1.41 6.654 6.654 0 0 0-.876 1.41z"
                class="cls-6"
                transform="translate(-439.891 -419.1)"
              />
            </g>
            <g id="Group_3972" transform="translate(8.186)">
              <path
                id="Path_1430"
                d="M441.675 417c.176 0 .529-.264.7-.793a4.305 4.305 0 0 0 .088-1.41 6.655 6.655 0 0 0-.881 1.41c-.171.443-.082.793.093.793z"
                class="cls-6"
                transform="translate(-441.491 -414.8)"
              />
            </g>
          </g>
          <g id="Group_3974">
            <path
              id="Path_1431"
              d="M445.569 430.165l-17 9.78c-.176.088-.264 0-.264-.176V419.5a.628.628 0 0 1 .264-.529l17-9.78c.176-.088.264 0 .264.176v20.265a.628.628 0 0 1-.264.533zm-16.74 8.987l16.476-9.516v-19.648l-16.476 9.512z"
              class="cls-6"
              transform="translate(-428.3 -409.161)"
            />
          </g>
        </g>
        <g id="Group_3976" transform="translate(0 11.806)">
          <path
            id="Path_1432"
            d="M422.169 422.6l-17 9.78a.628.628 0 0 0-.264.529v20.265c0 .176.088.264.264.176l17-9.78a.628.628 0 0 0 .264-.529v-20.269c0-.172-.088-.265-.264-.172zm-.264 20.441l-16.476 9.516V432.9l16.476-9.516z"
            class="cls-6"
            transform="translate(-404.9 -422.561)"
          />
          <path
            id="Path_1433"
            d="M413.753 438.47v5.9l-2.2 2.2 2.2-1.234.881-.529 2.291-1.322-2.291.352v-5.9a9.555 9.555 0 0 0 2.907-3.26 9.781 9.781 0 0 0 1.322-4.582l-5.815 3.348-.529 1.234.969-.088-1.674 3.348.264-2.026-.529-.176.352-1.586-2.2 1.322c-.001 2.823 1.761 4.056 4.052 2.999z"
            class="cls-6"
            transform="translate(-405.471 -423.457)"
          />
        </g>
        <g id="Group_3984" transform="translate(0 36.476)">
          <g id="Group_3982" transform="translate(3.084 7.581)">
            <g id="Group_3977" transform="translate(2.731 .207)">
              <path
                id="Path_1434"
                d="M414.5 459.4l-3 3.7 3 .352 2.907-3.7z"
                class="cls-6"
                transform="translate(-411.5 -459.4)"
              />
            </g>
            <g id="Group_3978" transform="translate(2.643 4.172)">
              <path
                id="Path_1435"
                d="M411.4 467.336l3 .352v-3.524l-3-.264z"
                class="cls-6"
                transform="translate(-411.4 -463.9)"
              />
            </g>
            <g id="Group_3979" transform="translate(5.815 .648)">
              <path
                id="Path_1436"
                d="M417.908 459.9L415 463.6v3.524l2.908-3.7z"
                class="cls-6"
                transform="translate(-415 -459.9)"
              />
            </g>
            <g id="Group_3980" transform="translate(0 5.69)">
              <path
                id="Path_1437"
                d="M410.779 468.863q-.264-.132-.529.264c-.088.176-.176.264-.176.441s0 .352.176.44l1.41.969a.268.268 0 0 1 0 .352c-.088.088-.088.176-.176.176h-.176l-1.41-.969c-.088-.088-.088-.176-.088-.352v-4.053a.457.457 0 0 0-.7-.441 1.62 1.62 0 0 0-.7 1.234v3.789a2.154 2.154 0 0 0 .529 1.586l1.5 1.586a1.417 1.417 0 0 1 .264.969v2.467l2.2-1.233v-4.229a2.3 2.3 0 0 0-.793-2.026z"
                class="cls-6"
                transform="translate(-408.4 -465.623)"
              />
            </g>
            <g id="Group_3981" transform="translate(6.96)">
              <path
                id="Path_1438"
                d="M420.089 459.284a1.62 1.62 0 0 0-.7 1.234v4.053c0 .176-.088.264-.088.441l-1.41 2.555c-.088.088-.088.176-.176.176h-.176a.268.268 0 0 1 0-.352l1.41-2.555a1.633 1.633 0 0 0 .176-.617c0-.176-.088-.176-.176-.264-.176-.088-.352.088-.529.352l-1.322 2.555a6.625 6.625 0 0 0-.793 3v4.229l2.2-1.234v-2.467a3.109 3.109 0 0 1 .264-1.233l1.5-3.348a5.052 5.052 0 0 0 .529-2.2v-3.789c-.005-.62-.357-.8-.709-.536z"
                class="cls-6"
                transform="translate(-416.3 -459.165)"
              />
            </g>
          </g>
          <g id="Group_3983">
            <path
              id="Path_1439"
              d="M422.169 471.565l-17 9.78c-.176.088-.264 0-.264-.176V460.9a.628.628 0 0 1 .264-.529l17-9.78c.176-.088.264 0 .264.176v20.265a.533.533 0 0 1-.264.533zm-16.74 8.987l16.476-9.516v-19.648l-16.476 9.512z"
              class="cls-6"
              transform="translate(-404.9 -450.561)"
            />
          </g>
        </g>
        <g id="Group_3987" transform="translate(20.617 25.199)">
          <g id="Group_3985" transform="translate(3.26 6.819)">
            <path
              id="Path_1440"
              d="M441.251 456.073v-6.432l1.322-.793-2.467-3.348-2.379 6.167 1.322-.793v6.432l-3.172 1.85v-6.432l1.322-.793-2.379-3.348-2.379 6.168 1.234-.793v6.432l-1.674.969v3.084l11.013-6.432v-3z"
              class="cls-6"
              transform="translate(-432 -445.5)"
            />
          </g>
          <g id="Group_3986">
            <path
              id="Path_1441"
              d="M445.569 458.765l-17 9.78c-.176.088-.264 0-.264-.176V448.1a.628.628 0 0 1 .264-.529l17-9.78c.176-.088.264 0 .264.176v20.265a.628.628 0 0 1-.264.533zm-16.74 8.987l16.476-9.516v-19.648l-16.476 9.512z"
              class="cls-6"
              transform="translate(-428.3 -437.761)"
            />
          </g>
        </g>
      </g>
      <g id="Group_3989" transform="translate(-.001)">
        <path
          id="Path_1442"
          d="M140.2 391.6l50.485 29.163 17.529 10.137 67.05 38.679-75.6 3.789L64.6 395.3z"
          class="cls-7"
          transform="translate(-64.6 -253.536)"
        />
        <path
          id="Path_1443"
          d="M303.7 294.989l42.732-60.089 135.156 78.063-42.732 60z"
          class="cls-7"
          transform="translate(-93.036 -234.9)"
        />
      </g>
      <g id="Group_3990" transform="translate(13.744)">
        <path
          id="Path_1444"
          d="M277.119 294.989L215.268 234.9 80.2 312.963l61.851 60z"
          class="cls-7"
          transform="translate(-80.2 -234.9)"
        />
        <path
          id="Path_1445"
          d="M438.856 391.6l-50.485 29.163-17.622 10.137-67.049 38.675 64.935 11.366L503.7 402.966z"
          class="cls-7"
          transform="translate(-106.781 -253.536)"
        />
      </g>
      <path
        id="Path_1446"
        fill="#e3c5a1"
        d="M300.8 451.6l21.586 12.511-21.586 12.6-21.5-12.6z"
        transform="translate(-90.135 -260.672)"
      />
    </g>
    <g id="XMLID_10_" transform="rotate(-13 2278 -3358.508)">
      <g id="XMLID_11_">
        <path
          id="XMLID_8_"
          d="M92.353 143.147a6.982 6.982 0 0 1-5.923-3.141L1.174 10.956A7.056 7.056 0 0 1 12.93 3.148L98.186 132.2a7.075 7.075 0 0 1-1.974 9.782 7.467 7.467 0 0 1-3.859 1.165z"
          class="cls-9"
          transform="translate(113.135 135.01)"
        />
        <path
          id="XMLID_7_"
          d="M98.1 139.64a6.042 6.042 0 0 1-1.885 1.795 7.086 7.086 0 0 1-9.782-1.974L1.174 10.41A7.075 7.075 0 0 1 3.148.628 5.482 5.482 0 0 1 4.4 0a6.872 6.872 0 0 0-.179 7.987l85.256 129.05a6.982 6.982 0 0 0 5.923 3.141 7.2 7.2 0 0 0 2.7-.538z"
          class="cls-10"
          transform="translate(113.135 135.556)"
        />
        <circle
          id="XMLID_6_"
          cx="65.423"
          cy="65.423"
          r="65.423"
          fill="#fff"
          opacity="0.2"
          transform="translate(12.45 12.967)"
        />
        <path
          id="XMLID_5_"
          fill="#fff"
          d="M107.871 31.32a57.014 57.014 0 0 0-96.025 41.551 56.084 56.084 0 0 0 6.1 25.667 57 57 0 1 1 89.925-67.218z"
          opacity="0.08"
          transform="translate(20.886 21.403)"
        />
        <path
          id="XMLID_15_"
          d="M73.934 147.638a73.81 73.81 0 1 1 61.384-114.512 73.747 73.747 0 0 1-61.384 114.512zm-.269-135.871a62.091 62.091 0 1 0 51.961 27.82 62.185 62.185 0 0 0-51.961-27.82z"
          class="cls-10"
          transform="translate(4.029 3.982)"
        />
        <path
          id="XMLID_12_"
          d="M77.963 155.658A77.8 77.8 0 0 1 1.592 62.236a77.067 77.067 0 0 1 33.384-49.359 78 78 0 0 1 107.871 21.987 77.913 77.913 0 0 1-64.884 120.794zm-.269-143.23a65.43 65.43 0 0 0-54.474 101.5 65.6 65.6 0 0 0 90.73 18.572 65.478 65.478 0 0 0 18.577-90.73 65.759 65.759 0 0 0-54.833-29.342z"
          class="cls-9"
        />
      </g>
    </g>
  </g>
</svg>
